<svg width="120" height="35" viewBox="0 0 120 35" fill="none" xmlns="http://www.w3.org/2000/svg">
<mask id="mask0" mask-type="alpha" maskUnits="userSpaceOnUse" x="0" y="0" width="120" height="35">
<path fill-rule="evenodd" clip-rule="evenodd" d="M0 34.7657H119.747V0H0V34.7657Z" fill="white"/>
</mask>
<g mask="url(#mask0)">
<path fill-rule="evenodd" clip-rule="evenodd" d="M119.298 25.8479C119.103 26.2319 118.91 26.5198 118.721 26.7116C118.533 26.9033 118.269 26.9994 117.931 26.9994C117.54 26.9994 117.27 26.8686 117.121 26.6059C116.97 26.3437 116.896 25.9183 116.896 25.3297V18.535H119.063V18.0548H116.896V15.5018H114.904V18.0548H113.556V18.535H114.904V25.3297C114.904 26.0849 115.044 26.6668 115.324 27.076C115.604 27.4858 116.199 27.6904 117.11 27.6904C118.256 27.6904 119.076 27.2555 119.571 26.3851L119.747 26.0396L119.298 25.8479ZM104.691 22.249C104.3 22.0506 103.87 21.8622 103.402 21.6827C102.933 21.5038 102.504 21.3535 102.113 21.2316C101.722 21.1103 101.394 20.9242 101.127 20.6748C100.86 20.4255 100.727 20.1153 100.727 19.7441C100.727 19.3092 100.88 18.9794 101.186 18.7552C101.492 18.5316 101.879 18.4193 102.347 18.4193C103.128 18.4193 103.698 18.644 104.056 19.0912C104.414 19.5395 104.664 20.1471 104.808 20.9147H105.276V18.4193C104.039 18.0229 103.096 17.8245 102.445 17.8245C101.56 17.8245 100.818 18.0777 100.219 18.5825C99.6199 19.0884 99.3207 19.7888 99.3207 20.6843C99.3207 21.1964 99.4504 21.638 99.7108 22.0086C99.9713 22.3804 100.294 22.6588 100.678 22.8438C101.062 23.0299 101.481 23.215 101.937 23.4006C102.393 23.5861 102.813 23.7494 103.197 23.8897C103.581 24.0311 103.903 24.2419 104.163 24.5236C104.424 24.8053 104.554 25.1374 104.554 25.5214C104.554 26.0463 104.336 26.4589 103.9 26.7596C103.464 27.0604 102.972 27.2107 102.425 27.2107C101.514 27.2107 100.824 26.9066 100.356 26.299C99.8871 25.6914 99.646 24.9138 99.6329 23.9668H99.0471V27.0956C100.18 27.4919 101.293 27.6904 102.387 27.6904C103.35 27.6904 104.205 27.4349 104.954 26.9229C105.703 26.4114 106.077 25.6942 106.077 24.7729C106.077 24.1586 105.943 23.6342 105.677 23.1988C105.41 22.7644 105.081 22.4475 104.691 22.249ZM89.5569 18.0548H85.8853V18.535H87.5647V26.9804H85.8853V27.4601H91.2363V26.9804H89.5569V18.0548ZM88.5605 16.2123C88.8733 16.2123 89.1469 16.0971 89.3812 15.8668C89.6155 15.6365 89.7327 15.3676 89.7327 15.0607C89.7327 14.741 89.6155 14.4688 89.3812 14.2446C89.1469 14.021 88.8733 13.9086 88.5605 13.9086C88.2483 13.9086 87.9747 14.021 87.7404 14.2446C87.5061 14.4688 87.389 14.741 87.389 15.0607C87.389 15.3676 87.5061 15.6365 87.7404 15.8668C87.9747 16.0971 88.2483 16.2123 88.5605 16.2123ZM77.3323 17.8245C76.6555 17.8245 76.0925 18.0615 75.6432 18.535C75.1945 19.0084 74.8458 19.5842 74.5984 20.2623H74.5598V18.0548H70.8881V18.535H72.5675V26.9804H70.8881V27.4601H76.1806V26.9804H74.5598V22.7767C74.5598 21.7532 74.7941 20.7872 75.2627 19.8783C75.7313 18.9699 76.2193 18.5154 76.7271 18.5154C76.8705 18.5154 76.9876 18.5607 77.0786 18.6501C77.1696 18.7396 77.2151 18.8547 77.2151 18.9956C77.2151 19.0722 77.1986 19.2326 77.1668 19.4752C77.1338 19.7184 77.1179 19.885 77.1179 19.9744C77.1179 20.269 77.2117 20.5055 77.4011 20.6843C77.5893 20.8638 77.8208 20.9532 78.0944 20.9532C78.7711 20.9532 79.1095 20.5245 79.1095 19.667C79.1095 19.1046 78.9565 18.6568 78.6506 18.3237C78.3446 17.9911 77.905 17.8245 77.3323 17.8245ZM61.0174 23.8036C61.0106 24.0529 60.9844 24.3827 60.9389 24.7919C60.8934 25.2017 60.8218 25.5248 60.7245 25.7612C60.6267 25.9983 60.4964 26.2414 60.3338 26.4907C60.1706 26.7401 59.9493 26.9229 59.6695 27.038C59.3897 27.1532 59.0672 27.2107 58.7033 27.2107C58.3387 27.2107 58.0163 27.1532 57.7364 27.038C57.4566 26.9229 57.2354 26.7401 57.0727 26.4907C56.9095 26.2414 56.7799 25.9983 56.682 25.7612C56.5842 25.5248 56.5126 25.2017 56.4671 24.7919C56.4216 24.3827 56.3954 24.0529 56.3891 23.8036C56.3823 23.5543 56.3795 23.2055 56.3795 22.7577C56.3795 22.3099 56.3823 21.9611 56.3891 21.7112C56.3954 21.4619 56.4216 21.1327 56.4671 20.7229C56.5126 20.3137 56.5842 19.9906 56.682 19.7536C56.7799 19.5171 56.9095 19.2734 57.0727 19.0241C57.2354 18.7748 57.4566 18.5925 57.7364 18.4774C58.0163 18.3617 58.3387 18.3047 58.7033 18.3047C59.0672 18.3047 59.3897 18.3617 59.6695 18.4774C59.9493 18.5925 60.1706 18.7748 60.3338 19.0241C60.4964 19.2734 60.6267 19.5171 60.7245 19.7536C60.8218 19.9906 60.8934 20.3137 60.9389 20.7229C60.9844 21.1327 61.0106 21.4619 61.0174 21.7112C61.0236 21.9611 61.0271 22.3099 61.0271 22.7577C61.0271 23.2055 61.0236 23.5543 61.0174 23.8036ZM62.2964 19.5809C61.9706 19.0627 61.4957 18.6401 60.8707 18.3142C60.2456 17.9877 59.5234 17.8245 58.7033 17.8245C57.8832 17.8245 57.1603 17.9877 56.5353 18.3142C55.9109 18.6401 55.4354 19.0627 55.1101 19.5809C54.7842 20.0991 54.5436 20.6268 54.3872 21.1645C54.2314 21.7017 54.1529 22.2328 54.1529 22.7577C54.1529 23.2826 54.2314 23.8131 54.3872 24.3509C54.5436 24.8881 54.7842 25.4158 55.1101 25.934C55.4354 26.4522 55.9109 26.8748 56.5353 27.2012C57.1603 27.5271 57.8832 27.6904 58.7033 27.6904C59.5234 27.6904 60.2456 27.5271 60.8707 27.2012C61.4957 26.8748 61.9706 26.4522 62.2964 25.934C62.6212 25.4158 62.8623 24.8881 63.0187 24.3509C63.1751 23.8131 63.253 23.2826 63.253 22.7577C63.253 22.2328 63.1751 21.7017 63.0187 21.1645C62.8623 20.6268 62.6212 20.0991 62.2964 19.5809ZM44.9163 26.3946C44.4085 26.8619 43.7317 27.0956 42.8854 27.0956C40.9586 27.0956 39.9952 25.6494 39.9952 22.7577C39.9952 19.7888 40.8221 18.3047 42.4754 18.3047C43.0743 18.3047 43.5361 18.4517 43.8619 18.7457C44.1872 19.0403 44.3499 19.4501 44.3499 19.9744C44.3499 20.0258 44.3431 20.1153 44.3306 20.2427C44.3175 20.3713 44.3112 20.4865 44.3112 20.5888C44.3112 21.254 44.6297 21.5866 45.2678 21.5866C45.9577 21.5866 46.3029 21.235 46.3029 20.5312C46.3029 19.7508 45.9053 19.1046 45.1114 18.5925C44.3175 18.0811 43.432 17.8245 42.4561 17.8245C41.1019 17.8245 39.9821 18.3013 39.0972 19.2544C38.2117 20.2081 37.7692 21.3753 37.7692 22.7577C37.7692 24.1138 38.1855 25.2755 39.0187 26.2414C39.8519 27.2074 40.9524 27.6904 42.319 27.6904C43.2955 27.6904 44.1418 27.4539 44.8578 26.9804C45.5738 26.507 46.1465 25.6752 46.5764 24.485L46.1465 24.3313C45.8343 25.2402 45.4242 25.9278 44.9163 26.3946ZM22.9865 20.5502C23.0513 20.2047 23.1588 19.8565 23.3084 19.5043C23.458 19.1521 23.6798 18.8642 23.9727 18.6401C24.2655 18.4165 24.6073 18.3047 24.9981 18.3047C25.3751 18.3047 25.701 18.3784 25.9745 18.5249C26.2475 18.6725 26.4528 18.8452 26.5893 19.0431C26.7258 19.2421 26.8333 19.5076 26.9118 19.8397C26.9897 20.1729 27.0352 20.454 27.0483 20.6843C27.0614 20.9147 27.0676 21.2093 27.0676 21.5676H22.8887C22.8887 21.235 22.9211 20.8957 22.9865 20.5502ZM29.4113 22.1624C29.4113 20.8705 29.0235 19.824 28.2494 19.0241C27.4748 18.2247 26.4625 17.8245 25.2125 17.8245C23.8458 17.8245 22.7454 18.308 21.9122 19.2734C21.079 20.2399 20.6627 21.4016 20.6627 22.7577C20.6627 24.1776 21.0466 25.3554 21.8149 26.2889C22.5827 27.2236 23.6701 27.6904 25.076 27.6904C26.1958 27.6904 27.0938 27.4757 27.7711 27.0475C28.4479 26.6188 28.9882 25.8669 29.3914 24.7919L28.962 24.6388C28.3632 26.2766 27.3019 27.0956 25.7789 27.0956C25.2841 27.0956 24.861 27.0123 24.5095 26.8457C24.1581 26.6797 23.8782 26.4622 23.6701 26.1934C23.4614 25.9245 23.2987 25.5762 23.1816 25.1469C23.0644 24.7187 22.9865 24.2866 22.9472 23.8517C22.9086 23.4168 22.8887 22.9047 22.8887 22.3161V22.1624H29.4113ZM9.30194 19.0358C9.20014 18.8776 9.07275 18.6412 8.9209 18.3281C8.76791 18.0156 8.61606 17.6288 8.46422 17.1682C8.31294 16.7076 8.18497 16.2419 8.08147 15.7712C7.96943 14.8086 7.85853 14.0025 7.74933 13.3519C7.639 12.7023 7.53151 12.1002 7.42687 11.5474C7.32166 10.9951 7.23805 10.4618 7.17493 9.94919C7.11237 9.43714 7.0754 8.85354 7.06516 8.19783C7.05038 7.67571 7.08166 7.06081 7.16071 6.35366C7.23805 5.64708 7.37341 4.96956 7.56507 4.32C7.75616 3.67155 8.00071 3.11031 8.29758 2.63627C8.59445 2.16223 8.97265 1.909 9.43445 1.87658C9.95881 1.8313 10.3888 2.26509 10.7243 3.17963C11.0593 4.09416 11.3027 5.20099 11.4557 6.49956C11.6075 7.79814 11.6616 9.14255 11.6166 10.5322C11.5723 11.9219 11.4346 13.0852 11.2066 14.021C10.9421 15.0965 10.6959 16.0278 10.4684 16.816C10.2403 17.6037 9.90876 18.3729 9.47199 19.123C9.46061 19.2242 9.40374 19.1952 9.30194 19.0358ZM7.95407 24.8691C7.60374 25.6338 7.16696 26.3845 6.64431 27.1196C6.12052 27.8558 5.68715 28.5065 5.34365 29.0728C5.07976 29.3925 4.86137 29.6525 4.68848 29.8532C4.51502 30.055 4.35578 30.2445 4.21189 30.4228C4.06687 30.6017 3.90478 30.7761 3.72507 30.9455C3.54478 31.1154 3.30876 31.2976 3.01758 31.4905C2.71218 31.6219 2.47218 31.6314 2.29701 31.5207C2.12241 31.41 1.9899 31.2652 1.90061 31.0869C1.81132 30.9091 1.74421 30.7185 1.69929 30.5139C1.65436 30.3099 1.62137 30.1606 1.60033 30.0667C1.71749 29.3847 1.89436 28.6323 2.13151 27.8089C2.3681 26.9866 2.8208 26.0435 3.48962 24.9809C4.03275 24.1099 4.50535 23.4089 4.90744 22.8801C5.30895 22.3507 5.65929 21.9309 5.95957 21.6207C6.25872 21.3104 6.52147 21.0991 6.74725 20.9845C6.97303 20.8711 7.19711 20.7906 7.42118 20.7425C8.14118 21.2797 8.4972 21.9108 8.48981 22.6353C8.48184 23.3598 8.30384 24.1043 7.95407 24.8691ZM12.0489 28.0895C11.6053 26.8368 11.2049 25.6645 10.8483 24.5734C10.4906 23.4833 10.2602 22.7018 10.1562 22.2311C10.5861 21.4496 10.97 20.5384 11.3095 19.4965C11.6485 18.455 11.9317 17.4248 12.1586 16.4068C12.3861 15.3894 12.5658 14.4224 12.6983 13.5067C12.8303 12.5911 12.9344 11.8465 13.0083 11.2712C13.0191 11.1706 13.0282 10.9057 13.0339 10.4769C13.0401 10.0493 13.0527 9.53664 13.072 8.94074C13.0913 8.34484 13.0953 7.72043 13.0851 7.06472C13.0737 6.41012 13.0549 5.78907 13.0259 5.20379C12.8326 4.32559 12.6472 3.48484 12.4708 2.68435C12.2945 1.88385 11.9237 1.26503 11.3596 0.825651C10.6708 0.282297 10.0333 0.00726584 9.44753 0.000557767C8.86061 -0.0055913 8.33 0.164347 7.85455 0.512048C7.37966 0.85975 6.97872 1.35615 6.65284 2.00012C6.3264 2.64522 6.05739 3.35907 5.84583 4.14391C5.63426 4.9282 5.49151 5.7231 5.41815 6.52696C5.34478 7.33192 5.35161 8.08658 5.44033 8.79037C5.44829 9.28174 5.52507 9.97211 5.67066 10.8609C5.81625 11.7503 5.99369 12.7073 6.20241 13.7303C6.41057 14.7544 6.6335 15.7668 6.8718 16.7679C7.10895 17.7697 7.33872 18.6244 7.56166 19.3321C7.17151 19.383 6.8536 19.4584 6.60905 19.5596C6.36336 19.6614 6.1336 19.7927 5.91805 19.9532C5.70308 20.1147 5.46194 20.3137 5.19692 20.5507C4.93132 20.7883 4.60602 21.0952 4.22156 21.4731C4.039 21.709 3.75749 22.0981 3.37474 22.6392C2.99312 23.1814 2.59559 23.8081 2.1844 24.5197C1.77208 25.2319 1.37967 25.9893 1.00431 26.7915C0.629523 27.5948 0.352556 28.3847 0.17284 29.1628C-0.00687514 29.9404 -0.0466856 30.6721 0.0545466 31.3569C0.15521 32.0428 0.452651 32.5956 0.9463 33.016C1.70952 33.4448 2.4972 33.4168 3.3099 32.9316C4.1226 32.447 4.90289 31.7387 5.65076 30.8068C6.39862 29.8755 7.09019 28.8414 7.72545 27.7032C8.36071 26.5657 8.89872 25.5555 9.34004 24.6729C9.78478 25.6304 10.1493 26.4891 10.4343 27.2499C10.7186 28.0112 10.9871 28.7346 11.2384 29.4205C11.4898 30.1064 11.7474 30.7834 12.0119 31.4497C12.2752 32.116 12.5931 32.8371 12.9645 33.613C13.3376 34.0921 13.6123 34.4281 13.7886 34.6209C13.9643 34.8132 14.115 34.8143 14.2407 34.6232C14.0564 33.9395 13.7562 32.9925 13.3393 31.7834C12.9224 30.5743 12.4919 29.3428 12.0489 28.0895Z" fill="#313131"/>
</g>
</svg>
